PathFileType	4	(X/Y/Z)	C:/Users/opensim2020/Desktop/walking_exp_matlab/subject06_walking22_straight_01.trc																																																																																																																																		
DataRate	CameraRate	NumFrames	NumMarkers	Units	OrigDataRate	OrigDataStartFrame	OrigNumFrames																																																																																																																														
100	100	5	44	mm	100	777	141																																																																																																																														
Frame#	Time	LFHD			RFHD			LBHD			RBHD			C7			T10			CLAV			STRN			RBAK			LSHO			LUPA			LELB			LFRM			LWRA			LWRB			LFIN			RSHO			RUPA			RELB			RFRM			RWRA			RWRB			RFIN			LASI			RASI			LPSI			RPSI			LTHI			LKNE			LTIB			LANK			LHEE			LTOE			RTHI			RKNE			RTIB			RANK			RHEE			RTOE			*39			*40			*41			*42			*43		
		X1	Y1	Z1	X2	Y2	Z2	X3	Y3	Z3	X4	Y4	Z4	X5	Y5	Z5	X6	Y6	Z6	X7	Y7	Z7	X8	Y8	Z8	X9	Y9	Z9	X10	Y10	Z10	X11	Y11	Z11	X12	Y12	Z12	X13	Y13	Z13	X14	Y14	Z14	X15	Y15	Z15	X16	Y16	Z16	X17	Y17	Z17	X18	Y18	Z18	X19	Y19	Z19	X20	Y20	Z20	X21	Y21	Z21	X22	Y22	Z22	X23	Y23	Z23	X24	Y24	Z24	X25	Y25	Z25	X26	Y26	Z26	X27	Y27	Z27	X28	Y28	Z28	X29	Y29	Z29	X30	Y30	Z30	X31	Y31	Z31	X32	Y32	Z32	X33	Y33	Z33	X34	Y34	Z34	X35	Y35	Z35	X36	Y36	Z36	X37	Y37	Z37	X38	Y38	Z38	X39	Y39	Z39	X40	Y40	Z40	X41	Y41	Z41	X42	Y42	Z42	X43	Y43	Z43	X44	Y44	Z44
																																																																																																																																					
36	0.35	-560.35321	1625.59277	1384.61731	-558.07532	1608.97473	1515.70142	-697.43372	1581.78479	1385.74548	-693.25555	1570.1322	1514.71033	-710.76849	1423.86816	1427.55688	-777.98376	1099.77051	1429.84351	-608.33795	1336.08789	1427.53174	-586.95251	1158.32654	1407.93079	-802.30084	1255.48328	1492.91101	-649.49518	1383.44299	1266.30469	-639.07562	1184.65881	1185.30103	-627.42871	1073.15808	1168.578	-517.63531	975.78284	1162.62695	-397.7814	952.12689	1216.35645	-432.44034	897.25183	1188.68359	-344.55161	874.30743	1197.51868	-657.71277	1361.79822	1588.41809	-741.75134	1179.16113	1670.84949	-760.82056	1059.55847	1690.81775	-774.03442	940.88055	1715.20825	-741.93396	792.5329	1698.05225	-800.28998	805.0531	1729.37439	-778.71228	723.70886	1737.79272	-627.58899	922.78723	1307.47656	-601.12354	938.12323	1527.91687	-780.14948	961.53241	1360.48853	-752.44733	964.4433	1526.69666	-752.72455	622.64343	1273.97656	-792.51587	462.5925	1300.84265	-941.33563	249.42665	1315.48804	-1027.86218	101.98303	1364.62634	-1071.04858	103.09284	1410.60413	-900.6972	38.52159	1361.47583	-561.36609	624.84161	1592.49146	-510.38409	513.72174	1559.44226	-468.61179	252.67094	1556.76929	-421.22287	73.2981	1509.97986	-452.6564	39.37291	1465.9679	-267.85904	80.9032	1499.41125	-656.02954	1668.69849	1448.02502	NaN	NaN	NaN	NaN	NaN	NaN	NaN	NaN	NaN	NaN	NaN	NaN
37	0.36	-547.74335	1625.63989	1386.40295	-545.33246	1608.6272	1517.42822	-684.71265	1581.53772	1387.43164	-680.422	1569.48669	1516.35962	-697.97711	1423.37476	1429.04944	-763.73346	1099.05273	1430.50586	-594.87854	1335.95276	1428.57678	-573.05664	1158.15613	1408.67114	-788.82611	1254.68201	1494.14111	-636.76337	1383.39905	1267.57666	-626.7088	1184.75928	1186.29639	-615.78766	1073.24243	1169.41711	-506.42654	975.25549	1163.46643	-386.90927	951.1123	1217.45203	-421.5972	896.36847	1189.70935	-334.06232	873.04346	1198.81848	-644.06091	1361.2168	1589.61646	-727.80341	1178.36462	1671.95789	-746.76044	1058.83105	1692.06006	-760.47083	940.2215	1716.59363	-729.17676	791.69305	1699.84583	-787.55756	804.56763	1730.94739	-766.31372	723.14459	1739.70459	-613.57471	922.28308	1307.5105	-586.461	938.1062	1528.20227	-765.8559	961.18304	1360.96094	-738.05432	964.59406	1527.45996	-739.62061	621.95428	1274.35889	-779.75128	461.83569	1301.12207	-933.78577	252.51627	1315.78345	-1024.61987	107.69424	1364.48376	-1067.70435	110.54417	1410.6283	-900.26331	38.53002	1361.88635	-546.65448	625.20801	1591.65027	-496.61166	513.849	1557.74048	-460.39481	251.18404	1554.72388	-417.93488	72.00114	1507.83484	-450.34549	41.72107	1463.59509	-263.9068	70.34496	1498.99097	-643.39227	1668.31262	1449.96594	NaN	NaN	NaN	NaN	NaN	NaN	NaN	NaN	NaN	NaN	NaN	NaN
38	0.37	-535.03186	1626.41028	1388.07581	-532.41272	1609.07581	1519.17981	-671.86621	1581.75427	1389.17896	-667.45575	1569.38501	1518.07312	-685.0658	1423.64978	1430.70728	-749.31665	1098.76147	1430.78381	-581.35602	1336.34204	1429.72668	-559.284	1158.60156	1409.56079	-775.38416	1254.32312	1495.50745	-624.00293	1383.81189	1268.79321	-614.32861	1184.97314	1187.25745	-604.21594	1073.46509	1170.22778	-495.59805	974.90796	1164.27148	-376.2518	949.7937	1218.49707	-411.07626	895.32391	1190.35986	-323.91803	871.44916	1199.80408	-630.28961	1361.10938	1590.97656	-713.52625	1177.91504	1673.23584	-732.29437	1058.39319	1693.41272	-746.40796	939.82788	1717.99756	-715.99384	791.09381	1701.46582	-774.23462	804.34265	1732.68298	-753.49274	722.9646	1741.59351	-598.33765	921.93457	1307.63403	-571.75024	938.5127	1528.44775	-750.8725	961.11401	1361.06287	-723.65247	965.35858	1527.98743	-725.97736	621.28949	1274.92773	-766.78674	461.39883	1301.92749	-925.9184	256.17007	1316.2085	-1020.57233	113.92325	1364.04651	-1063.42126	118.521	1410.05981	-899.55841	38.60701	1362.25842	-532.75024	625.95471	1591.28955	-483.47717	514.7384	1556.45422	-451.39343	251.71753	1553.30701	-412.07516	73.83608	1508.39331	-447.79547	44.66695	1464.83789	-259.23001	62.9892	1499.00415	-630.76379	1668.50269	1451.89209	NaN	NaN	NaN	NaN	NaN	NaN	NaN	NaN	NaN	NaN	NaN	NaN
39	0.38	-522.24976	1627.81555	1389.8656	-519.41559	1610.30591	1520.83789	-658.82648	1582.53882	1391.01965	-654.26233	1570.05798	1519.87671	-671.66589	1424.6571	1432.3855	-735.05408	1099.22986	1430.51611	-567.82776	1337.38977	1431.09204	-545.63068	1159.59753	1410.61597	-761.63226	1254.74731	1496.87769	-611.07086	1384.6051	1269.9613	-602.14661	1185.52917	1188.4093	-592.8233	1073.93958	1171.02124	-485.47644	974.38226	1165.11633	-366.01685	948.1203	1219.36621	-401.40656	894.13953	1191.05457	-314.12274	869.54803	1200.61499	-616.30627	1361.56018	1592.52271	-698.77039	1177.81152	1674.67029	-717.41168	1058.32996	1694.82336	-731.84692	939.73212	1719.45117	-702.28198	790.99933	1703.04858	-760.37646	804.4444	1734.25952	-740.05402	722.99695	1743.32727	-583.45337	922.07544	1307.96472	-556.9314	939.52826	1528.77563	-735.70923	961.54657	1360.4082	-709.43744	967.43286	1527.56396	-711.73962	621.01477	1275.95044	-752.97137	461.40616	1302.86609	-917.07324	260.39655	1316.85327	-1015.5545	120.94809	1363.76978	-1057.99475	127.2417	1409.5415	-898.43671	38.91919	1362.80164	-519.69885	627.2207	1592.09839	-470.90915	516.62091	1556.75403	-439.86734	253.9986	1555.03333	-407.51532	73.41833	1509.24402	-444.25146	45.80046	1465.83789	-255.53539	58.49613	1499.96802	-618.12335	1669.4325	1453.84778	NaN	NaN	NaN	NaN	NaN	NaN	NaN	NaN	NaN	NaN	NaN	NaN
40	0.39	-509.43115	1629.5542	1391.4563	-506.2338	1611.94397	1522.46277	-645.91644	1584.00525	1392.9303	-640.97498	1571.38416	1521.71118	-657.73639	1426.17712	1433.83435	-721.09125	1100.37244	1430.40942	-554.27313	1338.93225	1432.43872	-531.73212	1161.09497	1411.81726	-747.83057	1255.97827	1498.71814	-597.79572	1385.99194	1271.18774	-590.34015	1186.57007	1189.65076	-581.5907	1074.91833	1171.97791	-474.66095	974.02789	1165.60144	-356.25604	946.19403	1220.09253	-392.23553	892.78455	1191.41418	-305.46393	867.06165	1201.03723	-602.25592	1362.52405	1594.01819	-683.71735	1178.2428	1676.21509	-701.79071	1058.69373	1696.34583	-716.67133	940.0813	1720.9082	-687.87683	790.9566	1704.27832	-745.867	805.10516	1735.97095	-726.04016	723.44153	1744.85901	-568.00012	922.90662	1308.66125	-542.85339	941.26135	1529.16479	-720.43463	962.54553	1359.0791	-695.53064	970.11737	1526.4126	-696.95251	621.35242	1277.11755	-737.97394	461.74744	1303.86804	-907.20947	265.24258	1317.63269	-1009.52533	128.59035	1363.81885	-1051.22998	136.61102	1409.57056	-897.06134	39.54506	1363.26978	-507.11899	629.09106	1593.19934	-458.52457	518.92407	1557.7876	-430.20724	255.96475	1556.4248	-404.77545	73.32565	1510.00732	-442.50613	47.19539	1466.7793	-253.17139	54.21397	1501.47742	-605.29504	1670.90735	1455.69543	NaN	NaN	NaN	NaN	NaN	NaN	NaN	NaN	NaN	NaN	NaN	NaN
